<?xml version="1.0" encoding="UTF-8" standalone="no"?>
<svg
   viewBox="0 0 155 60"
   version="1.1"
   id="svg960"
   sodipodi:docname="windows_app.svg"
   inkscape:version="1.1.2 (b8e25be833, 2022-02-05)"
   xmlns:inkscape="http://www.inkscape.org/namespaces/inkscape"
   xmlns:sodipodi="http://sodipodi.sourceforge.net/DTD/sodipodi-0.dtd"
   xmlns="http://www.w3.org/2000/svg"
   xmlns:svg="http://www.w3.org/2000/svg"
   xmlns:rdf="http://www.w3.org/1999/02/22-rdf-syntax-ns#"
   xmlns:cc="http://creativecommons.org/ns#"
   xmlns:dc="http://purl.org/dc/elements/1.1/">
  <sodipodi:namedview
     id="namedview962"
     pagecolor="#ffffff"
     bordercolor="#666666"
     borderopacity="1.0"
     inkscape:pageshadow="2"
     inkscape:pageopacity="0.0"
     inkscape:pagecheckerboard="0"
     showgrid="false"
     inkscape:zoom="3.8594344"
     inkscape:cx="39.124904"
     inkscape:cy="7.7731596"
     inkscape:window-width="2560"
     inkscape:window-height="1494"
     inkscape:window-x="-11"
     inkscape:window-y="-11"
     inkscape:window-maximized="1"
     inkscape:current-layer="svg960" />
  <defs
     id="defs932"><linearGradient
   id="a"
   x1="31.8"
   y1="183.29"
   x2="15.02"
   y2="166.51"
   gradientTransform="matrix(0.96987435,0,0,-0.96987435,81.078992,190.97154)"
   gradientUnits="userSpaceOnUse">
  <stop
     offset="0"
     stop-color="#00a0ff"
     id="stop894" />
  <stop
     offset=".01"
     stop-color="#00a1ff"
     id="stop896" />
  <stop
     offset=".26"
     stop-color="#00beff"
     id="stop898" />
  <stop
     offset=".51"
     stop-color="#00d2ff"
     id="stop900" />
  <stop
     offset=".76"
     stop-color="#00dfff"
     id="stop902" />
  <stop
     offset="1"
     stop-color="#00e3ff"
     id="stop904" />
</linearGradient>
<linearGradient
   id="b"
   x1="43.83"
   y1="172"
   x2="19.64"
   y2="172"
   gradientTransform="matrix(0.96987435,0,0,-0.96987435,81.078992,190.97154)"
   gradientUnits="userSpaceOnUse">
  <stop
     offset="0"
     stop-color="#ffe000"
     id="stop907" />
  <stop
     offset=".41"
     stop-color="#ffbd00"
     id="stop909" />
  <stop
     offset=".78"
     stop-color="orange"
     id="stop911" />
  <stop
     offset="1"
     stop-color="#ff9c00"
     id="stop913" />
</linearGradient>
<linearGradient
   id="c"
   x1="34.83"
   y1="169.7"
   x2="12.07"
   y2="146.95"
   gradientTransform="matrix(0.96987435,0,0,-0.96987435,81.078992,190.97154)"
   gradientUnits="userSpaceOnUse">
  <stop
     offset="0"
     stop-color="#ff3a44"
     id="stop916" />
  <stop
     offset="1"
     stop-color="#c31162"
     id="stop918" />
</linearGradient>
<linearGradient
   id="d"
   x1="17.3"
   y1="191.82"
   x2="27.46"
   y2="181.66"
   gradientTransform="matrix(0.96987435,0,0,-0.96987435,81.078992,190.97154)"
   gradientUnits="userSpaceOnUse">
  <stop
     offset="0"
     stop-color="#32a071"
     id="stop921" />
  <stop
     offset=".07"
     stop-color="#2da771"
     id="stop923" />
  <stop
     offset=".48"
     stop-color="#15cf74"
     id="stop925" />
  <stop
     offset=".8"
     stop-color="#06e775"
     id="stop927" />
  <stop
     offset="1"
     stop-color="#00f076"
     id="stop929" />
</linearGradient>
<rect
   id="SVGID_1_"
   y="0"
   width="864"
   height="312" />

	
	
	
	
	
	
	
	
	
	
	
	
	
	
	
	
	
	
	
	
	
</defs>
  <title
     id="title934">fil_get</title>
  <path
     fill="none"
     d="M0 0h155v60H0z"
     id="path936" />
  <rect
     x="10"
     y="10"
     width="135"
     height="40"
     rx="5"
     ry="5"
     id="rect938" />
  <path
     d="M140 10.8a4.2 4.2 0 0 1 4.2 4.2v30a4.2 4.2 0 0 1-4.2 4.2H15a4.2 4.2 0 0 1-4.2-4.2V15a4.2 4.2 0 0 1 4.2-4.2h125m0-.8H15a5 5 0 0 0-5 5v30a5 5 0 0 0 5 5h125a5 5 0 0 0 5-5V15a5 5 0 0 0-5-5z"
     fill="#a6a6a6"
     id="path940" />
  <path
     d="m 116.96434,28.158741 -14.05348,8.001463 a 1.6196902,1.6196902 0 0 1 -1.93975,0 l -0.0679,0.06789 0.0679,0.06789 a 1.6099914,1.6099914 0 0 0 1.93975,0 l 14.16987,-8.049954 z"
     style="isolation:isolate;stroke-width:0.999999"
     opacity="0.2"
     id="path954" />
  <path
     d="m 100.90322,36.102012 a 1.9397487,1.9397487 0 0 1 -0.44614,-1.357824 v 0.145481 a 1.9397487,1.9397487 0 0 0 0.44614,1.357824 l 0.0679,-0.06789 z m 20.91049,-10.688015 -4.84937,2.744744 0.0873,0.08729 4.76209,-2.696251 a 1.6972801,1.6972801 0 0 0 0.96987,-1.396619 1.8039663,1.8039663 0 0 1 -0.96987,1.260837 z"
     style="isolation:isolate;stroke-width:0.999999"
     opacity="0.12"
     id="path956" />
  <metadata
     id="metadata1044">
    <rdf:RDF>
      <cc:Work
         rdf:about="">
        <dc:title>fil_get</dc:title>
      </cc:Work>
    </rdf:RDF>
  </metadata>
  <g
     id="g2485"
     transform="translate(0.00763,0.058192)">
    <rect
       x="19.583363"
       y="16.531145"
       fill="#f25022"
       width="12.674178"
       height="12.674178"
       id="rect1059"
       style="stroke-width:3.62536" />
    <rect
       x="33.573357"
       y="16.531145"
       fill="#7fba00"
       width="12.674178"
       height="12.674178"
       id="rect1061"
       style="stroke-width:3.62536" />
    <rect
       x="19.583363"
       y="30.506016"
       fill="#00a4ef"
       width="12.674178"
       height="12.674178"
       id="rect1063"
       style="stroke-width:3.62536" />
    <rect
       x="33.573357"
       y="30.506016"
       fill="#ffb900"
       width="12.674178"
       height="12.674178"
       id="rect1065"
       style="stroke-width:3.62536" />
    <path
       fill="#ffffff"
       d="m 70.673306,30.808501 c 0,-0.378108 0.136119,-0.680594 0.408356,-0.937707 0.272238,-0.257114 0.589849,-0.378108 0.967957,-0.378108 0.393232,0 0.725967,0.136119 0.98308,0.393232 0.257114,0.257113 0.393233,0.574724 0.393233,0.922583 0,0.362984 -0.136119,0.680595 -0.408357,0.922584 -0.272238,0.257113 -0.589848,0.378108 -0.983081,0.378108 -0.393232,0 -0.710842,-0.120995 -0.98308,-0.378108 -0.241989,-0.257114 -0.378108,-0.5596 -0.378108,-0.922584 m 2.495512,12.371692 h -2.253523 v -9.603942 h 2.253523 z"
       id="path1067"
       style="stroke-width:3.62536" />
    <path
       fill="#ffffff"
       d="m 80.035258,41.531642 c 0.332735,0 0.710843,-0.07562 1.1192,-0.226865 0.408356,-0.151243 0.77134,-0.362983 1.119199,-0.620097 v 2.10228 c -0.362984,0.211741 -0.77134,0.362984 -1.22507,0.468854 -0.453729,0.105871 -0.967956,0.166368 -1.512431,0.166368 -1.406562,0 -2.55601,-0.45373 -3.448345,-1.346064 -0.892334,-0.892335 -1.330939,-2.041783 -1.330939,-3.418096 0,-1.54268 0.453729,-2.813123 1.361188,-3.811328 0.907459,-0.998205 2.177902,-1.497307 3.841577,-1.497307 0.42348,0 0.846961,0.0605 1.285566,0.166367 0.438606,0.10587 0.771341,0.241989 1.028454,0.378108 v 2.162777 c -0.347859,-0.257113 -0.710843,-0.453729 -1.073826,-0.589848 -0.362984,-0.136119 -0.741092,-0.21174 -1.1192,-0.21174 -0.892335,0 -1.603178,0.287362 -2.162777,0.862086 -0.544476,0.574724 -0.816713,1.361188 -0.816713,2.344269 0,0.967956 0.257113,1.724172 0.786464,2.268647 0.529351,0.544476 1.240194,0.801589 2.147653,0.801589"
       id="path1069"
       style="stroke-width:3.62536" />
    <path
       fill="#ffffff"
       d="m 88.701492,33.425008 c 0.181492,0 0.347859,0.01513 0.483978,0.03025 0.136119,0.03025 0.272238,0.0605 0.362984,0.09075 v 2.283772 c -0.120995,-0.09075 -0.287362,-0.166368 -0.514227,-0.241989 -0.226865,-0.07562 -0.499103,-0.120995 -0.831838,-0.120995 -0.559599,0 -1.028453,0.226865 -1.406561,0.695719 -0.378108,0.468853 -0.574724,1.179696 -0.574724,2.162777 v 4.854906 h -2.253523 v -9.603942 h 2.253523 v 1.512432 h 0.03025 c 0.211741,-0.529351 0.514227,-0.937708 0.937708,-1.22507 0.423481,-0.287362 0.922583,-0.438605 1.512432,-0.438605"
       id="path1071"
       style="stroke-width:3.62536" />
    <path
       fill="#ffffff"
       d="m 89.669448,38.521903 c 0,-1.588053 0.45373,-2.843372 1.346064,-3.781079 0.892335,-0.922584 2.147653,-1.391437 3.735707,-1.391437 1.497307,0 2.677004,0.453729 3.523961,1.346064 0.84697,0.892335 1.27045,2.10228 1.27045,3.614712 0,1.557804 -0.45373,2.797998 -1.34607,3.720582 -0.892332,0.922583 -2.117402,1.376312 -3.660082,1.376312 -1.482183,0 -2.677004,-0.438605 -3.53909,-1.315815 -0.892335,-0.862086 -1.33094,-2.056907 -1.33094,-3.569339 m 2.359394,-0.07562 c 0,0.998205 0.226864,1.769546 0.680594,2.298897 0.453729,0.529351 1.104075,0.786464 1.951037,0.786464 0.816713,0 1.451934,-0.257113 1.875415,-0.786464 0.423481,-0.529351 0.650346,-1.315816 0.650346,-2.359394 0,-1.028453 -0.226865,-1.814918 -0.66547,-2.344269 -0.438606,-0.529351 -1.073827,-0.786464 -1.875416,-0.786464 -0.831837,0 -1.467058,0.272237 -1.935912,0.831837 -0.45373,0.5596 -0.680594,1.33094 -0.680594,2.359393"
       id="path1073"
       style="stroke-width:3.62536" />
    <path
       fill="#ffffff"
       d="m 102.90323,36.102012 c 0,0.317611 0.10587,0.574724 0.30248,0.756216 0.21174,0.181492 0.66547,0.408357 1.36119,0.695719 0.90746,0.362983 1.54268,0.77134 1.90566,1.225069 0.36299,0.45373 0.54448,0.998205 0.54448,1.633427 0,0.907459 -0.34786,1.633426 -1.04358,2.177901 -0.69572,0.544476 -1.63342,0.816713 -2.81312,0.816713 -0.39323,0 -0.83184,-0.04537 -1.31582,-0.151243 -0.48398,-0.09075 -0.89233,-0.226864 -1.22507,-0.362983 v -2.223275 c 0.40836,0.287362 0.84696,0.514227 1.33094,0.680594 0.46886,0.166368 0.90746,0.257114 1.28557,0.257114 0.51423,0 0.89234,-0.07562 1.13432,-0.211741 0.24199,-0.136119 0.36299,-0.378108 0.36299,-0.725967 0,-0.317611 -0.121,-0.574724 -0.37811,-0.786464 -0.25711,-0.211741 -0.72597,-0.468854 -1.43681,-0.741092 -0.83184,-0.347859 -1.42169,-0.741091 -1.76955,-1.179697 -0.34786,-0.438605 -0.52935,-0.998205 -0.52935,-1.663675 0,-0.862086 0.34786,-1.572928 1.02846,-2.132528 0.68059,-0.5596 1.57293,-0.831838 2.677,-0.831838 0.33274,0 0.71084,0.03025 1.13433,0.105871 0.42348,0.07562 0.77134,0.166367 1.04357,0.287362 v 2.147653 c -0.30248,-0.196617 -0.65034,-0.362984 -1.04357,-0.514227 -0.39324,-0.136119 -0.80159,-0.211741 -1.1797,-0.211741 -0.42348,0 -0.77134,0.09075 -0.99821,0.257114 -0.25711,0.166367 -0.3781,0.408356 -0.3781,0.695718"
       id="path1075"
       style="stroke-width:3.62536" />
    <path
       fill="#ffffff"
       d="m 108.01524,38.521903 c 0,-1.588053 0.45373,-2.843372 1.34607,-3.781079 0.89233,-0.922584 2.14765,-1.391437 3.73571,-1.391437 1.4973,0 2.677,0.453729 3.52396,1.346064 0.84696,0.892335 1.27044,2.10228 1.27044,3.614712 0,1.557804 -0.45373,2.797998 -1.34606,3.720582 -0.89234,0.922583 -2.11741,1.376312 -3.66009,1.376312 -1.48218,0 -2.677,-0.438605 -3.53909,-1.315815 -0.89233,-0.862086 -1.33094,-2.056907 -1.33094,-3.569339 m 2.34427,-0.07562 c 0,0.998205 0.22687,1.769546 0.6806,2.298897 0.45373,0.529351 1.10407,0.786464 1.95103,0.786464 0.81672,0 1.45194,-0.257113 1.87542,-0.786464 0.42348,-0.529351 0.65035,-1.315816 0.65035,-2.359394 0,-1.028453 -0.22687,-1.814918 -0.66547,-2.344269 -0.43861,-0.529351 -1.07383,-0.786464 -1.87542,-0.786464 -0.83184,0 -1.46706,0.272237 -1.93591,0.831837 -0.45373,0.5596 -0.6806,1.33094 -0.6806,2.359393"
       id="path1077"
       style="stroke-width:3.62536" />
    <path
       fill="#ffffff"
       d="m 125.34771,35.436542 v 4.930528 c 0,1.028453 0.24199,1.784669 0.71084,2.298896 0.46886,0.514227 1.19483,0.756216 2.14766,0.756216 0.31761,0 0.65034,-0.03025 0.98308,-0.10587 0.33273,-0.07562 0.57472,-0.136119 0.71084,-0.226865 v -1.875415 c -0.13612,0.09074 -0.30249,0.166367 -0.48398,0.226864 -0.18149,0.0605 -0.34786,0.09075 -0.46885,0.09075 -0.45373,0 -0.80159,-0.120994 -1.01333,-0.362983 -0.21174,-0.24199 -0.31761,-0.66547 -0.31761,-1.255319 v -4.491922 h 2.2989 v -1.845167 h -2.28378 V 30.73288 l -2.26864,0.695718 v 2.162778 h -3.37273 v -1.164573 c 0,-0.574724 0.121,-1.013329 0.37811,-1.315815 0.25711,-0.302487 0.6201,-0.438605 1.08895,-0.438605 0.24199,0 0.45373,0.03025 0.65035,0.09074 0.18149,0.0605 0.31761,0.120995 0.39323,0.166368 v -1.951037 c -0.16637,-0.0605 -0.34786,-0.09075 -0.5596,-0.120994 -0.21174,-0.03025 -0.45373,-0.04537 -0.72597,-0.04537 -1.02845,0 -1.87541,0.31761 -2.52576,0.967956 -0.65034,0.650345 -0.98308,1.467059 -0.98308,2.480388 v 1.33094 h -1.60318 v 1.845166 h 1.60318 v 7.758775 h 2.28377 V 35.43654 Z"
       id="path1079"
       style="stroke-width:3.62536" />
    <polygon
       fill="#ffffff"
       points="352.4,244.8 342.2,244.8 314,175.4 313.8,175.4 313.8,244.8 299.6,244.8 299.6,156.2 321.6,156.2 347.1,221.9 347.5,221.9 374.4,156.2 395.5,156.2 395.5,244.8 380.1,244.8 380.1,175.4 379.9,175.4 "
       id="polygon1081"
       style="stroke-width:23.9704"
       transform="matrix(0.15124317,0,0,0.15124317,8.92072,6.1558647)" />
  </g>
  <text
     xml:space="preserve"
     style="font-style:normal;font-weight:normal;font-size:8.64659px;line-height:1.25;font-family:sans-serif;fill:#000000;fill-opacity:1;stroke:none;stroke-width:1"
     x="53.476086"
     y="23.645962"
     id="text3567"><tspan
       sodipodi:role="line"
       id="tspan3565"
       x="53.476086"
       y="23.645962"
       style="font-style:normal;font-variant:normal;font-weight:normal;font-stretch:normal;font-family:'Microsoft YaHei';-inkscape-font-specification:'Microsoft YaHei';fill:#ffffff;fill-opacity:1;stroke-width:1">GET IT FOR</tspan></text>
</svg>
